<?xml version="1.0" encoding="UTF-8" standalone="no"?>
<svg
   version="1.1"
   width="640px"
   height="495px"
   style="shape-rendering:geometricPrecision; text-rendering:geometricPrecision; image-rendering:optimizeQuality; fill-rule:evenodd; clip-rule:evenodd"
   id="svg359"
   sodipodi:docname="waning gibbius.svg"
   inkscape:version="1.2.1 (9c6d41e410, 2022-07-14, custom)"
   xmlns:inkscape="http://www.inkscape.org/namespaces/inkscape"
   xmlns:sodipodi="http://sodipodi.sourceforge.net/DTD/sodipodi-0.dtd"
   xmlns="http://www.w3.org/2000/svg"
   xmlns:svg="http://www.w3.org/2000/svg">
  <defs
     id="defs363" />
  <sodipodi:namedview
     id="namedview361"
     pagecolor="#ffffff"
     bordercolor="#000000"
     borderopacity="0.25"
     inkscape:showpageshadow="2"
     inkscape:pageopacity="0.0"
     inkscape:pagecheckerboard="0"
     inkscape:deskcolor="#d1d1d1"
     showgrid="false"
     inkscape:zoom="1.5010101"
     inkscape:cx="321.4502"
     inkscape:cy="248.49933"
     inkscape:window-width="1920"
     inkscape:window-height="984"
     inkscape:window-x="0"
     inkscape:window-y="28"
     inkscape:window-maximized="1"
     inkscape:current-layer="svg359" />
  <path
     id="path365"
     style="fill:#000000;stroke-width:0.921673"
     d="M 150 80 A 70 70 0 0 0 80 150 A 70 70 0 0 0 150 220 A 70 70 0 0 0 220 150 A 70 70 0 0 0 150 80 z M 144.16211 104.99023 A 52.829742 50.164871 0 0 1 196.99219 155.15625 A 52.829742 50.164871 0 0 1 144.16211 205.32031 A 52.829742 50.164871 0 0 1 91.332031 155.15625 A 52.829742 50.164871 0 0 1 144.16211 104.99023 z " />
</svg>
